<svg xmlns="http://www.w3.org/2000/svg" width="100%" height="100%" viewBox="0 0 1200 350" style="background:#0d1117;border-radius:10px"><defs><linearGradient id="bg-grad" x1="0%" x2="100%" y1="0%" y2="100%"><stop offset="0%" stop-color="#0d1117"/><stop offset="50%" stop-color="#161b22"/><stop offset="100%" stop-color="#090d11"/></linearGradient><linearGradient id="text-grad" x1="0%" x2="100%" y1="0%" y2="0%"><stop offset="0%" stop-color="#58a6ff"/><stop offset="50%" stop-color="#bc8cff"/><stop offset="100%" stop-color="#3fb950"/></linearGradient><linearGradient id="card-grad" x1="0%" x2="100%" y1="0%" y2="100%"><stop offset="0%" stop-color="rgba(56, 139, 253, 0.15)"/><stop offset="100%" stop-color="rgba(188, 140, 255, 0.05)"/></linearGradient><filter id="glow" width="140%" height="140%" x="-20%" y="-20%"><feGaussianBlur result="blur" stdDeviation="8"/><feComposite in="SourceGraphic" in2="blur" operator="over"/></filter></defs><style>@keyframes pulse{0%{opacity:.2;transform:scale(.98)}50%{opacity:.6;transform:scale(1.02)}}@keyframes float-node{0%{transform:translateY(0)}50%{transform:translateY(-10px)}}.badge-text,.subtitle,.title{font-family:-apple-system,BlinkMacSystemFont,&apos;Segoe UI&apos;,Roboto,Helvetica,Arial,sans-serif}.title{font-size:42px;font-weight:800;fill:url(#text-grad)}.subtitle{font-size:18px;font-weight:500;fill:#8b949e}.badge-text{font-size:13px;font-weight:600;fill:#c9d1d9}.pulsing-grid{animation:pulse 6s infinite ease-in-out;transform-origin:center}.node-1{animation:float-node 4s infinite ease-in-out}.node-2{animation:float-node 5s infinite ease-in-out 1s}.node-3{animation:float-node 4.5s infinite ease-in-out .5s}.flowing-line{stroke-dasharray:8,8;animation:dash 2s linear infinite}</style><rect width="1200" height="350" fill="url(#bg-grad)" rx="10"/><g class="pulsing-grid" opacity=".3"><path stroke="#30363d" stroke-width="1" d="M 0,50 L 1200,50 M 0,100 L 1200,100 M 0,150 L 1200,150 M 0,200 L 1200,200 M 0,250 L 1200,250 M 0,300 L 1200,300"/><path stroke="#30363d" stroke-width="1" d="M 100,0 L 100,350 M 200,0 L 200,350 M 300,0 L 300,350 M 400,0 L 400,350 M 500,0 L 500,350 M 600,0 L 600,350 M 700,0 L 700,350 M 800,0 L 800,350 M 900,0 L 900,350 M 1000,0 L 1000,350 M 1100,0 L 1100,350"/></g><g opacity=".4"><path fill="none" stroke="#58a6ff" stroke-width="2" d="M 150,280 C 300,320 450,250 600,280 C 750,310 900,240 1050,270" class="flowing-line"/><path fill="none" stroke="#bc8cff" stroke-width="2" d="M 100,240 C 250,180 400,280 650,220 C 800,160 950,260 1100,210" class="flowing-line"/></g><g class="node-1" opacity=".5"><circle cx="1000" cy="80" r="6" fill="#3fb950" filter="url(#glow)"/><circle cx="1000" cy="80" r="14" fill="none" stroke="#3fb950" stroke-dasharray="3 3" stroke-width="1.5"/></g><g class="node-2" opacity=".5"><circle cx="150" cy="100" r="5" fill="#58a6ff" filter="url(#glow)"/><circle cx="150" cy="100" r="12" fill="none" stroke="#58a6ff" stroke-width="1.5"/></g><g class="node-3" opacity=".5"><circle cx="1080" cy="220" r="7" fill="#bc8cff" filter="url(#glow)"/><circle cx="1080" cy="220" r="16" fill="none" stroke="#bc8cff" stroke-dasharray="4 2" stroke-width="1.5"/></g><g transform="translate(60, 50)"><g><path fill="none" stroke="#58a6ff" stroke-width="3.5" d="M 30,5 L 55,18 V 45 C 55,65 30,80 30,80 C 30,80 5,65 5,45 V 18 Z" filter="url(#glow)" transform="translate(0, 10)"/><path fill="url(#card-grad)" stroke="#bc8cff" stroke-width="1.5" d="M 30,15 L 45,24 V 43 C 45,57 30,67 30,67 C 30,67 15,57 15,43 V 24 Z" transform="translate(0, 10)"/><path fill="none" stroke="#3fb950" stroke-linecap="round" stroke-linejoin="round" stroke-width="3.5" d="M 23,40 L 28,45 L 38,33" transform="translate(0, 10)"/></g><text x="80" y="48" class="title">Awesome Extended Detection &amp; Response (XDR)</text><text x="80" y="85" class="subtitle">🛡️ Comprehensive Directory of Commercial XDR Platforms &amp; Open-Source SOC Building Blocks</text><g><g transform="translate(80, 120) translate(0, 0)"><rect width="210" height="70" fill="#161b22" stroke="#30363d" stroke-width="1.5" rx="8"/><rect width="210" height="70" fill="url(#card-grad)" rx="8"/><text x="15" y="28" fill="#58a6ff" class="badge-text">🌐 Telemetry Coverage</text><text x="15" y="50" fill="#8b949e" font-family="-apple-system, sans-serif" font-size="12">Endpoint • Cloud • Identity • Email</text></g><g transform="translate(80, 120) translate(230, 0)"><rect width="210" height="70" fill="#161b22" stroke="#30363d" stroke-width="1.5" rx="8"/><rect width="210" height="70" fill="url(#card-grad)" rx="8"/><text x="15" y="28" fill="#bc8cff" class="badge-text">📊 Market Dynamics</text><text x="15" y="50" fill="#8b949e" font-family="-apple-system, sans-serif" font-size="12">$3.8B+ Market • Oligopolistic</text></g><g transform="translate(80, 120) translate(460, 0)"><rect width="210" height="70" fill="#161b22" stroke="#30363d" stroke-width="1.5" rx="8"/><rect width="210" height="70" fill="url(#card-grad)" rx="8"/><text x="15" y="28" fill="#3fb950" class="badge-text">⚡ Open Building Blocks</text><text x="15" y="50" fill="#8b949e" font-family="-apple-system, sans-serif" font-size="12">Wazuh • Velociraptor • Elastic</text></g><g transform="translate(80, 120) translate(690, 0)"><rect width="210" height="70" fill="#161b22" stroke="#30363d" stroke-width="1.5" rx="8"/><rect width="210" height="70" fill="url(#card-grad)" rx="8"/><text x="15" y="28" fill="#d29922" class="badge-text">🎯 SOC &amp; SecOps Ready</text><text x="15" y="50" fill="#8b949e" font-family="-apple-system, sans-serif" font-size="12">Pricing • Free Tiers • Star Counts</text></g></g><line x1="80" x2="990" y1="220" y2="220" stroke="#30363d" stroke-width="1"/><circle cx="80" cy="220" r="3" fill="#58a6ff"/><circle cx="990" cy="220" r="3" fill="#3fb950"/></g></svg>